<?xml version="1.0" encoding="UTF-8" standalone="no"?>
<!DOCTYPE svg PUBLIC "-//W3C//DTD SVG 1.1//EN" "http://www.w3.org/Graphics/SVG/1.1/DTD/svg11.dtd">
<svg width="100%" height="100%" viewBox="0 0 1276 1214" version="1.1" xmlns="http://www.w3.org/2000/svg" xmlns:xlink="http://www.w3.org/1999/xlink" xml:space="preserve" xmlns:serif="http://www.serif.com/" style="fill-rule:evenodd;clip-rule:evenodd;stroke-linejoin:round;stroke-miterlimit:2;">
    <g transform="matrix(1,0,0,1,-575.631,-20)">
        <g transform="matrix(1,0,0,0.631269,0,7.37463)">
            <g transform="matrix(9.704,0,0,1.23273,-1901.61,-355.47)">
                <path d="M386.735,308.895C386.735,306.516 386.58,304.584 386.389,304.584L379.244,304.584C379.053,304.584 378.898,306.516 378.898,308.895L378.898,317.515C378.898,319.894 379.053,321.825 379.244,321.825L386.389,321.825C386.58,321.825 386.735,319.894 386.735,317.515L386.735,308.895Z" style="fill:rgb(146,65,160);"/>
            </g>
            <g transform="matrix(7.784,0,0,1.23273,-1251.37,-355.47)">
                <path d="M386.735,308.895C386.735,306.516 386.542,304.584 386.304,304.584L379.329,304.584C379.091,304.584 378.898,306.516 378.898,308.895L378.898,317.515C378.898,319.894 379.091,321.825 379.329,321.825L386.304,321.825C386.542,321.825 386.735,319.894 386.735,317.515L386.735,308.895Z" style="fill:rgb(146,182,244);"/>
            </g>
            <g transform="matrix(14.568,0,0,1.23273,-3990.33,-355.47)">
                <path d="M386.735,308.895C386.735,306.516 386.632,304.584 386.505,304.584L379.129,304.584C379.001,304.584 378.898,306.516 378.898,308.895L378.898,317.515C378.898,319.894 379.001,321.825 379.129,321.825L386.505,321.825C386.632,321.825 386.735,319.894 386.735,317.515L386.735,308.895Z" style="fill:rgb(146,182,244);"/>
            </g>
            <g transform="matrix(16.232,0,0,1.23273,-4777.3,-355.47)">
                <path d="M386.735,308.895C386.735,306.516 386.642,304.584 386.528,304.584L379.105,304.584C378.991,304.584 378.898,306.516 378.898,308.895L378.898,317.515C378.898,319.894 378.991,321.825 379.105,321.825L386.528,321.825C386.642,321.825 386.735,319.894 386.735,317.515L386.735,308.895Z" style="fill:rgb(146,182,244);"/>
            </g>
            <g transform="matrix(6.632,0,0,1.23273,-1232.17,-355.47)">
                <path d="M386.735,308.895C386.735,306.516 386.508,304.584 386.229,304.584L379.404,304.584C379.125,304.584 378.898,306.516 378.898,308.895L378.898,317.515C378.898,319.894 379.125,321.825 379.404,321.825L386.229,321.825C386.508,321.825 386.735,319.894 386.735,317.515L386.735,308.895Z" style="fill:rgb(146,65,160);"/>
            </g>
            <g transform="matrix(10.088,0,0,1.23273,-2640.95,-355.47)">
                <path d="M386.735,308.895C386.735,306.516 386.586,304.584 386.403,304.584L379.231,304.584C379.047,304.584 378.898,306.516 378.898,308.895L378.898,317.515C378.898,319.894 379.047,321.825 379.231,321.825L386.403,321.825C386.586,321.825 386.735,319.894 386.735,317.515L386.735,308.895Z" style="fill:rgb(186,99,61);"/>
            </g>
        </g>
        <g transform="matrix(1,0,0,0.631269,0,27.2985)">
            <g transform="matrix(9.704,0,0,1.23273,-1901.61,-323.667)">
                <path d="M386.735,308.895C386.735,306.516 386.58,304.584 386.389,304.584L379.244,304.584C379.053,304.584 378.898,306.516 378.898,308.895L378.898,317.515C378.898,319.894 379.053,321.825 379.244,321.825L386.389,321.825C386.58,321.825 386.735,319.894 386.735,317.515L386.735,308.895Z" style="fill:rgb(146,65,160);"/>
            </g>
            <g transform="matrix(22.376,0,0,1.23273,-6896.61,-323.667)">
                <path d="M386.735,308.895C386.735,306.516 386.668,304.584 386.585,304.584L379.048,304.584C378.965,304.584 378.898,306.516 378.898,308.895L378.898,317.515C378.898,319.894 378.965,321.825 379.048,321.825L386.585,321.825C386.668,321.825 386.735,319.894 386.735,317.515L386.735,308.895Z" style="fill:rgb(186,99,61);"/>
            </g>
        </g>
        <g transform="matrix(1,0,0,0.631269,0,47.2259)">
            <g transform="matrix(9.704,0,0,1.23273,-1901.61,-291.87)">
                <path d="M386.735,308.895C386.735,306.516 386.58,304.584 386.389,304.584L379.244,304.584C379.053,304.584 378.898,306.516 378.898,308.895L378.898,317.515C378.898,319.894 379.053,321.825 379.244,321.825L386.389,321.825C386.58,321.825 386.735,319.894 386.735,317.515L386.735,308.895Z" style="fill:rgb(146,65,160);"/>
            </g>
            <g transform="matrix(18.664,0,0,1.23273,-5462.05,-291.87)">
                <path d="M386.735,308.895C386.735,306.516 386.654,304.584 386.555,304.584L379.078,304.584C378.979,304.584 378.898,306.516 378.898,308.895L378.898,317.515C378.898,319.894 378.979,321.825 379.078,321.825L386.555,321.825C386.654,321.825 386.735,319.894 386.735,317.515L386.735,308.895Z" style="fill:rgb(186,99,61);"/>
            </g>
        </g>
        <g transform="matrix(1,0,0,0.631269,0,67.1516)">
            <g transform="matrix(9.704,0,0,1.23273,-1901.61,-260.07)">
                <path d="M386.735,308.895C386.735,306.516 386.58,304.584 386.389,304.584L379.244,304.584C379.053,304.584 378.898,306.516 378.898,308.895L378.898,317.515C378.898,319.894 379.053,321.825 379.244,321.825L386.389,321.825C386.58,321.825 386.735,319.894 386.735,317.515L386.735,308.895Z" style="fill:rgb(146,65,160);"/>
            </g>
            <g transform="matrix(18.304,0,0,1.23273,-5345.08,-260.07)">
                <path d="M386.735,308.895C386.735,306.516 386.653,304.584 386.552,304.584L379.082,304.584C378.98,304.584 378.898,306.516 378.898,308.895L378.898,317.515C378.898,319.894 378.98,321.825 379.082,321.825L386.552,321.825C386.653,321.825 386.735,319.894 386.735,317.515L386.735,308.895Z" style="fill:rgb(146,182,244);"/>
            </g>
            <g transform="matrix(6.504,0,0,1.23273,-964.991,-260.07)">
                <path d="M386.735,308.895C386.735,306.516 386.504,304.584 386.219,304.584L379.414,304.584C379.129,304.584 378.898,306.516 378.898,308.895L378.898,317.515C378.898,319.894 379.129,321.825 379.414,321.825L386.219,321.825C386.504,321.825 386.735,319.894 386.735,317.515L386.735,308.895Z" style="fill:rgb(146,65,160);"/>
            </g>
            <g transform="matrix(34.104,0,0,1.23273,-11707.8,-260.07)">
                <path d="M386.735,308.895C386.735,306.516 386.691,304.584 386.637,304.584L378.997,304.584C378.942,304.584 378.898,306.516 378.898,308.895L378.898,317.515C378.898,319.894 378.942,321.825 378.997,321.825L386.637,321.825C386.691,321.825 386.735,319.894 386.735,317.515L386.735,308.895Z" style="fill:rgb(186,99,61);"/>
            </g>
        </g>
        <g transform="matrix(1,0,0,0.631269,0,87.0773)">
            <g transform="matrix(9.704,0,0,1.23273,-1901.61,-228.27)">
                <path d="M386.735,308.895C386.735,306.516 386.58,304.584 386.389,304.584L379.244,304.584C379.053,304.584 378.898,306.516 378.898,308.895L378.898,317.515C378.898,319.894 379.053,321.825 379.244,321.825L386.389,321.825C386.58,321.825 386.735,319.894 386.735,317.515L386.735,308.895Z" style="fill:rgb(146,65,160);"/>
            </g>
            <g transform="matrix(3.304,0,0,1.23273,455.94,-228.27)">
                <path d="M386.735,308.895C386.735,306.516 386.28,304.584 385.72,304.584L379.913,304.584C379.353,304.584 378.898,306.516 378.898,308.895L378.898,317.515C378.898,319.894 379.353,321.825 379.913,321.825L385.72,321.825C386.28,321.825 386.735,319.894 386.735,317.515L386.735,308.895Z" style="fill:rgb(146,65,160);"/>
            </g>
            <g transform="matrix(22.904,0,0,1.23273,-7164.82,-228.27)">
                <path d="M386.735,308.895C386.735,306.516 386.669,304.584 386.589,304.584L379.045,304.584C378.964,304.584 378.898,306.516 378.898,308.895L378.898,317.515C378.898,319.894 378.964,321.825 379.045,321.825L386.589,321.825C386.669,321.825 386.735,319.894 386.735,317.515L386.735,308.895Z" style="fill:rgb(146,182,244);"/>
            </g>
            <g transform="matrix(6.104,0,0,1.23273,-866.722,-228.27)">
                <path d="M386.735,308.895C386.735,306.516 386.489,304.584 386.186,304.584L379.448,304.584C379.144,304.584 378.898,306.516 378.898,308.895L378.898,317.515C378.898,319.894 379.144,321.825 379.448,321.825L386.186,321.825C386.489,321.825 386.735,319.894 386.735,317.515L386.735,308.895Z" style="fill:rgb(146,65,160);"/>
            </g>
            <g transform="matrix(37.904,0,0,1.23273,-13235.4,-228.27)">
                <path d="M386.735,308.895C386.735,306.516 386.695,304.584 386.647,304.584L378.987,304.584C378.938,304.584 378.898,306.516 378.898,308.895L378.898,317.515C378.898,319.894 378.938,321.825 378.987,321.825L386.647,321.825C386.695,321.825 386.735,319.894 386.735,317.515L386.735,308.895Z" style="fill:rgb(186,99,61);"/>
            </g>
        </g>
        <g transform="matrix(1,0,0,0.631269,0,107.003)">
            <g transform="matrix(9.704,0,0,1.23273,-1901.61,-196.47)">
                <path d="M386.735,308.895C386.735,306.516 386.58,304.584 386.389,304.584L379.244,304.584C379.053,304.584 378.898,306.516 378.898,308.895L378.898,317.515C378.898,319.894 379.053,321.825 379.244,321.825L386.389,321.825C386.58,321.825 386.735,319.894 386.735,317.515L386.735,308.895Z" style="fill:rgb(146,65,160);"/>
            </g>
            <g transform="matrix(13.104,0,0,1.23273,-3307.42,-196.47)">
                <path d="M386.735,308.895C386.735,306.516 386.62,304.584 386.479,304.584L379.154,304.584C379.013,304.584 378.898,306.516 378.898,308.895L378.898,317.515C378.898,319.894 379.013,321.825 379.154,321.825L386.479,321.825C386.62,321.825 386.735,319.894 386.735,317.515L386.735,308.895Z" style="fill:rgb(146,182,244);"/>
            </g>
            <g transform="matrix(6.304,0,0,1.23273,-795.171,-196.47)">
                <path d="M386.735,308.895C386.735,306.516 386.497,304.584 386.203,304.584L379.43,304.584C379.137,304.584 378.898,306.516 378.898,308.895L378.898,317.515C378.898,319.894 379.137,321.825 379.43,321.825L386.203,321.825C386.497,321.825 386.735,319.894 386.735,317.515L386.735,308.895Z" style="fill:rgb(146,65,160);"/>
            </g>
            <g transform="matrix(19.104,0,0,1.23273,-5815.91,-196.47)">
                <path d="M386.735,308.895C386.735,306.516 386.656,304.584 386.559,304.584L379.074,304.584C378.977,304.584 378.898,306.516 378.898,308.895L378.898,317.515C378.898,319.894 378.977,321.825 379.074,321.825L386.559,321.825C386.656,321.825 386.735,319.894 386.735,317.515L386.735,308.895Z" style="fill:rgb(186,99,61);"/>
            </g>
        </g>
        <g transform="matrix(1,0,0,0.631269,0,146.854)">
            <g>
                <g transform="matrix(9.70707,0,0,1.23273,-1902.8,-132.87)">
                    <path d="M386.735,308.895C386.735,306.516 386.58,304.584 386.389,304.584L379.244,304.584C379.053,304.584 378.898,306.516 378.898,308.895L378.898,317.515C378.898,319.894 379.053,321.825 379.244,321.825L386.389,321.825C386.58,321.825 386.735,319.894 386.735,317.515L386.735,308.895Z" style="fill:rgb(146,65,160);"/>
                </g>
                <g transform="matrix(11.2799,0,0,1.23273,-2603.53,-132.87)">
                    <path d="M386.735,308.895C386.735,306.516 386.602,304.584 386.438,304.584L379.196,304.584C379.032,304.584 378.898,306.516 378.898,308.895L378.898,317.515C378.898,319.894 379.032,321.825 379.196,321.825L386.438,321.825C386.602,321.825 386.735,319.894 386.735,317.515L386.735,308.895Z" style="fill:rgb(146,65,160);"/>
                </g>
                <g transform="matrix(13.1149,0,0,1.23273,-3415.39,-132.87)">
                    <path d="M386.735,308.895C386.735,306.516 386.62,304.584 386.479,304.584L379.154,304.584C379.013,304.584 378.898,306.516 378.898,308.895L378.898,317.515C378.898,319.894 379.013,321.825 379.154,321.825L386.479,321.825C386.62,321.825 386.735,319.894 386.735,317.515L386.735,308.895Z" style="fill:rgb(146,182,244);"/>
                </g>
                <g transform="matrix(6.62688,0,0,1.23273,-1023.33,-132.87)">
                    <path d="M386.735,308.895C386.735,306.516 386.508,304.584 386.229,304.584L379.404,304.584C379.125,304.584 378.898,306.516 378.898,308.895L378.898,317.515C378.898,319.894 379.125,321.825 379.404,321.825L386.229,321.825C386.508,321.825 386.735,319.894 386.735,317.515L386.735,308.895Z" style="fill:rgb(244,240,180);"/>
                </g>
                <g transform="matrix(26.0911,0,0,1.23273,-8669.97,-132.87)">
                    <path d="M386.735,308.895C386.735,306.516 386.677,304.584 386.606,304.584L379.027,304.584C378.956,304.584 378.898,306.516 378.898,308.895L378.898,317.515C378.898,319.894 378.956,321.825 379.027,321.825L386.606,321.825C386.677,321.825 386.735,319.894 386.735,317.515L386.735,308.895Z" style="fill:rgb(56,163,112);"/>
                </g>
            </g>
        </g>
        <g transform="matrix(1,0,0,0.631269,0,166.78)">
            <g>
                <g transform="matrix(7.9376,0,0,1.23273,-1271.48,-101.07)">
                    <path d="M386.735,308.895C386.735,306.516 386.546,304.584 386.312,304.584L379.321,304.584C379.088,304.584 378.898,306.516 378.898,308.895L378.898,317.515C378.898,319.894 379.088,321.825 379.321,321.825L386.312,321.825C386.546,321.825 386.735,319.894 386.735,317.515L386.735,308.895Z" style="fill:rgb(146,182,244);"/>
                </g>
                <g transform="matrix(6.36474,0,0,1.23273,-805.979,-101.07)">
                    <path d="M386.735,308.895C386.735,306.516 386.499,304.584 386.208,304.584L379.425,304.584C379.134,304.584 378.898,306.516 378.898,308.895L378.898,317.515C378.898,319.894 379.134,321.825 379.425,321.825L386.208,321.825C386.499,321.825 386.735,319.894 386.735,317.515L386.735,308.895Z" style="fill:rgb(146,182,244);"/>
                </g>
                <g transform="matrix(19.7341,0,0,1.23273,-6054.44,-101.07)">
                    <path d="M386.735,308.895C386.735,306.516 386.659,304.584 386.565,304.584L379.068,304.584C378.974,304.584 378.898,306.516 378.898,308.895L378.898,317.515C378.898,319.894 378.974,321.825 379.068,321.825L386.565,321.825C386.659,321.825 386.735,319.894 386.735,317.515L386.735,308.895Z" style="fill:rgb(146,182,244);"/>
                </g>
                <g transform="matrix(16.3917,0,0,1.23273,-4970.36,-101.07)">
                    <path d="M386.735,308.895C386.735,306.516 386.643,304.584 386.53,304.584L379.103,304.584C378.99,304.584 378.898,306.516 378.898,308.895L378.898,317.515C378.898,319.894 378.99,321.825 379.103,321.825L386.53,321.825C386.643,321.825 386.735,319.894 386.735,317.515L386.735,308.895Z" style="fill:rgb(244,240,180);"/>
                </g>
                <g transform="matrix(17.9646,0,0,1.23273,-5722.44,-101.07)">
                    <path d="M386.735,308.895C386.735,306.516 386.651,304.584 386.548,304.584L379.085,304.584C378.982,304.584 378.898,306.516 378.898,308.895L378.898,317.515C378.898,319.894 378.982,321.825 379.085,321.825L386.548,321.825C386.651,321.825 386.735,319.894 386.735,317.515L386.735,308.895Z" style="fill:rgb(146,182,244);"/>
                </g>
            </g>
        </g>
        <g transform="matrix(1,0,0,0.631269,0,186.706)">
            <g>
                <g transform="matrix(14.655,0,0,1.23273,-3869.35,-69.2696)">
                    <path d="M386.735,308.895C386.735,306.516 386.632,304.584 386.506,304.584L379.127,304.584C379.001,304.584 378.898,306.516 378.898,308.895L378.898,317.515C378.898,319.894 379.001,321.825 379.127,321.825L386.506,321.825C386.632,321.825 386.735,319.894 386.735,317.515L386.735,308.895Z" style="fill:rgb(244,240,180);"/>
                </g>
                <g transform="matrix(13.0986,0,0,1.23273,-3474.9,-69.2696)">
                    <path d="M386.735,308.895C386.735,306.516 386.62,304.584 386.479,304.584L379.154,304.584C379.013,304.584 378.898,306.516 378.898,308.895L378.898,317.515C378.898,319.894 379.013,321.825 379.154,321.825L386.479,321.825C386.62,321.825 386.735,319.894 386.735,317.515L386.735,308.895Z" style="fill:rgb(146,182,244);"/>
                </g>
                <g transform="matrix(22.847,0,0,1.23273,-7363.1,-69.2696)">
                    <path d="M386.735,308.895C386.735,306.516 386.669,304.584 386.588,304.584L379.045,304.584C378.964,304.584 378.898,306.516 378.898,308.895L378.898,317.515C378.898,319.894 378.964,321.825 379.045,321.825L386.588,321.825C386.669,321.825 386.735,319.894 386.735,317.515L386.735,308.895Z" style="fill:rgb(244,240,180);"/>
                </g>
                <g transform="matrix(12.5251,0,0,1.23273,-3568.98,-69.2696)">
                    <path d="M386.735,308.895C386.735,306.516 386.615,304.584 386.467,304.584L379.166,304.584C379.018,304.584 378.898,306.516 378.898,308.895L378.898,317.515C378.898,319.894 379.018,321.825 379.166,321.825L386.467,321.825C386.615,321.825 386.735,319.894 386.735,317.515L386.735,308.895Z" style="fill:rgb(186,99,61);"/>
                </g>
                <g transform="matrix(14.9008,0,0,1.23273,-4614.08,-69.2696)">
                    <path d="M386.735,308.895C386.735,306.516 386.634,304.584 386.51,304.584L379.123,304.584C378.999,304.584 378.898,306.516 378.898,308.895L378.898,317.515C378.898,319.894 378.999,321.825 379.123,321.825L386.51,321.825C386.634,321.825 386.735,319.894 386.735,317.515L386.735,308.895Z" style="fill:rgb(146,182,244);"/>
                </g>
                <g transform="matrix(4.90656,0,0,1.23273,-880.442,-69.2696)">
                    <path d="M386.735,308.895C386.735,306.516 386.429,304.584 386.051,304.584L379.582,304.584C379.205,304.584 378.898,306.516 378.898,308.895L378.898,317.515C378.898,319.894 379.205,321.825 379.582,321.825L386.051,321.825C386.429,321.825 386.735,319.894 386.735,317.515L386.735,308.895Z" style="fill:rgb(244,240,180);"/>
                </g>
                <g transform="matrix(12.5251,0,0,1.23273,-3880.86,-69.2696)">
                    <path d="M386.735,308.895C386.735,306.516 386.615,304.584 386.467,304.584L379.166,304.584C379.018,304.584 378.898,306.516 378.898,308.895L378.898,317.515C378.898,319.894 379.018,321.825 379.166,321.825L386.467,321.825C386.615,321.825 386.735,319.894 386.735,317.515L386.735,308.895Z" style="fill:rgb(186,99,61);"/>
                </g>
            </g>
        </g>
        <g transform="matrix(1,0,0,0.631269,0,206.631)">
            <g transform="matrix(14.5731,0,0,1.23273,-3837.67,-37.4696)">
                <path d="M386.735,308.895C386.735,306.516 386.632,304.584 386.505,304.584L379.128,304.584C379.001,304.584 378.898,306.516 378.898,308.895L378.898,317.515C378.898,319.894 379.001,321.825 379.128,321.825L386.505,321.825C386.632,321.825 386.735,319.894 386.735,317.515L386.735,308.895Z" style="fill:rgb(244,240,180);"/>
            </g>
            <g transform="matrix(3.67776,0,0,1.23273,209.672,-37.4696)">
                <path d="M386.735,308.895C386.735,306.516 386.326,304.584 385.823,304.584L379.81,304.584C379.307,304.584 378.898,306.516 378.898,308.895L378.898,317.515C378.898,319.894 379.307,321.825 379.81,321.825L385.823,321.825C386.326,321.825 386.735,319.894 386.735,317.515L386.735,308.895Z" style="fill:rgb(146,182,244);"/>
            </g>
            <g transform="matrix(6.79072,0,0,1.23273,-1111.7,-37.4696)">
                <path d="M386.735,308.895C386.735,306.516 386.514,304.584 386.241,304.584L379.392,304.584C379.12,304.584 378.898,306.516 378.898,308.895L378.898,317.515C378.898,319.894 379.12,321.825 379.392,321.825L386.241,321.825C386.514,321.825 386.735,319.894 386.735,317.515L386.735,308.895Z" style="fill:rgb(146,182,244);"/>
            </g>
        </g>
        <g transform="matrix(1,0,0,0.631269,0,226.557)">
            <g transform="matrix(8.17312,0,0,1.23273,-1362.57,-5.66962)">
                <path d="M386.735,308.895C386.735,306.516 386.551,304.584 386.325,304.584L379.309,304.584C379.082,304.584 378.898,306.516 378.898,308.895L378.898,317.515C378.898,319.894 379.082,321.825 379.309,321.825L386.325,321.825C386.551,321.825 386.735,319.894 386.735,317.515L386.735,308.895Z" style="fill:rgb(146,182,244);"/>
            </g>
            <g transform="matrix(13.4531,0,0,1.23273,-3481.01,-5.66962)">
                <path d="M386.735,308.895C386.735,306.516 386.623,304.584 386.486,304.584L379.148,304.584C379.01,304.584 378.898,306.516 378.898,308.895L378.898,317.515C378.898,319.894 379.01,321.825 379.148,321.825L386.486,321.825C386.623,321.825 386.735,319.894 386.735,317.515L386.735,308.895Z" style="fill:rgb(244,240,180);"/>
            </g>
            <g transform="matrix(8.17312,0,0,1.23273,-1576.98,-5.66962)">
                <path d="M386.735,308.895C386.735,306.516 386.551,304.584 386.325,304.584L379.309,304.584C379.082,304.584 378.898,306.516 378.898,308.895L378.898,317.515C378.898,319.894 379.082,321.825 379.309,321.825L386.325,321.825C386.551,321.825 386.735,319.894 386.735,317.515L386.735,308.895Z" style="fill:rgb(146,182,244);"/>
            </g>
        </g>
        <g transform="matrix(1,0,0,0.631269,0,306.612)">
            <g transform="matrix(8.17312,0,0,1.23273,-1362.57,120.972)">
                <path d="M386.735,308.895C386.735,306.516 386.551,304.584 386.325,304.584L379.309,304.584C379.082,304.584 378.898,306.516 378.898,308.895L378.898,317.515C378.898,319.894 379.082,321.825 379.309,321.825L386.325,321.825C386.551,321.825 386.735,319.894 386.735,317.515L386.735,308.895Z" style="fill:rgb(146,182,244);"/>
            </g>
            <g transform="matrix(24.8131,0,0,1.23273,-7875.58,120.972)">
                <path d="M386.735,308.895C386.735,306.516 386.674,304.584 386.6,304.584L379.033,304.584C378.959,304.584 378.898,306.516 378.898,308.895L378.898,317.515C378.898,319.894 378.959,321.825 379.033,321.825L386.6,321.825C386.674,321.825 386.735,319.894 386.735,317.515L386.735,308.895Z" style="fill:rgb(244,240,180);"/>
            </g>
            <g transform="matrix(8.17312,0,0,1.23273,-1672.27,120.972)">
                <path d="M386.735,308.895C386.735,306.516 386.551,304.584 386.325,304.584L379.309,304.584C379.082,304.584 378.898,306.516 378.898,308.895L378.898,317.515C378.898,319.894 379.082,321.825 379.309,321.825L386.325,321.825C386.551,321.825 386.735,319.894 386.735,317.515L386.735,308.895Z" style="fill:rgb(146,182,244);"/>
            </g>
        </g>
        <g transform="matrix(9.77312,0,0,0.778182,-1981.34,542.978)">
            <path d="M386.735,308.895C386.735,306.516 386.581,304.584 386.392,304.584L379.241,304.584C379.052,304.584 378.898,306.516 378.898,308.895L378.898,317.515C378.898,319.894 379.052,321.825 379.241,321.825L386.392,321.825C386.581,321.825 386.735,319.894 386.735,317.515L386.735,308.895Z" style="fill:rgb(146,65,160);"/>
        </g>
        <g transform="matrix(1,0,0,0.631269,0,247.56)">
            <g transform="matrix(20.0131,0,0,1.23273,-5990.41,24.4234)">
                <path d="M386.735,308.895C386.735,306.516 386.66,304.584 386.567,304.584L379.066,304.584C378.973,304.584 378.898,306.516 378.898,308.895L378.898,317.515C378.898,319.894 378.973,321.825 379.066,321.825L386.567,321.825C386.66,321.825 386.735,319.894 386.735,317.515L386.735,308.895Z" style="fill:rgb(244,240,180);"/>
            </g>
            <g transform="matrix(22.8931,0,0,1.23273,-7274.73,24.4234)">
                <path d="M386.735,308.895C386.735,306.516 386.669,304.584 386.588,304.584L379.045,304.584C378.964,304.584 378.898,306.516 378.898,308.895L378.898,317.515C378.898,319.894 378.964,321.825 379.045,321.825L386.588,321.825C386.669,321.825 386.735,319.894 386.735,317.515L386.735,308.895Z" style="fill:rgb(146,182,244);"/>
            </g>
            <g transform="matrix(14.8931,0,0,1.23273,-4376.46,24.4234)">
                <path d="M386.735,308.895C386.735,306.516 386.634,304.584 386.51,304.584L379.123,304.584C378.999,304.584 378.898,306.516 378.898,308.895L378.898,317.515C378.898,319.894 378.999,321.825 379.123,321.825L386.51,321.825C386.634,321.825 386.735,319.894 386.735,317.515L386.735,308.895Z" style="fill:rgb(244,240,180);"/>
            </g>
            <g transform="matrix(7.05312,0,0,1.23273,-1473.61,24.4234)">
                <path d="M386.735,308.895C386.735,306.516 386.522,304.584 386.259,304.584L379.374,304.584C379.111,304.584 378.898,306.516 378.898,308.895L378.898,317.515C378.898,319.894 379.111,321.825 379.374,321.825L386.259,321.825C386.522,321.825 386.735,319.894 386.735,317.515L386.735,308.895Z" style="fill:rgb(146,182,244);"/>
            </g>
        </g>
        <g transform="matrix(1,0,0,0.631269,0,268.563)">
            <g transform="matrix(12.1731,0,0,1.23273,-2958.41,54.5165)">
                <path d="M386.735,308.895C386.735,306.516 386.612,304.584 386.459,304.584L379.174,304.584C379.022,304.584 378.898,306.516 378.898,308.895L378.898,317.515C378.898,319.894 379.022,321.825 379.174,321.825L386.459,321.825C386.612,321.825 386.735,319.894 386.735,317.515L386.735,308.895Z" style="fill:rgb(146,182,244);"/>
            </g>
            <g transform="matrix(4.81312,0,0,1.23273,-218.619,54.5165)">
                <path d="M386.735,308.895C386.735,306.516 386.423,304.584 386.038,304.584L379.595,304.584C379.211,304.584 378.898,306.516 378.898,308.895L378.898,317.515C378.898,319.894 379.211,321.825 379.595,321.825L386.038,321.825C386.423,321.825 386.735,319.894 386.735,317.515L386.735,308.895Z" style="fill:rgb(244,240,180);"/>
            </g>
            <g transform="matrix(24.4931,0,0,1.23273,-7884.73,54.5165)">
                <path d="M386.735,308.895C386.735,306.516 386.674,304.584 386.598,304.584L379.035,304.584C378.96,304.584 378.898,306.516 378.898,308.895L378.898,317.515C378.898,319.894 378.96,321.825 379.035,321.825L386.598,321.825C386.674,321.825 386.735,319.894 386.735,317.515L386.735,308.895Z" style="fill:rgb(186,99,61);"/>
            </g>
            <g transform="matrix(6.89312,0,0,1.23273,-1293.86,54.5165)">
                <path d="M386.735,308.895C386.735,306.516 386.517,304.584 386.248,304.584L379.385,304.584C379.116,304.584 378.898,306.516 378.898,308.895L378.898,317.515C378.898,319.894 379.116,321.825 379.385,321.825L386.248,321.825C386.517,321.825 386.735,319.894 386.735,317.515L386.735,308.895Z" style="fill:rgb(146,182,244);"/>
            </g>
        </g>
        <g transform="matrix(1,0,0,0.631269,0,328.407)">
            <g transform="matrix(20.0131,0,0,1.23273,-5990.41,149.811)">
                <path d="M386.735,308.895C386.735,306.516 386.66,304.584 386.567,304.584L379.066,304.584C378.973,304.584 378.898,306.516 378.898,308.895L378.898,317.515C378.898,319.894 378.973,321.825 379.066,321.825L386.567,321.825C386.66,321.825 386.735,319.894 386.735,317.515L386.735,308.895Z" style="fill:rgb(244,240,180);"/>
            </g>
            <g transform="matrix(22.8931,0,0,1.23273,-7275.99,149.811)">
                <path d="M386.735,308.895C386.735,306.516 386.669,304.584 386.588,304.584L379.045,304.584C378.964,304.584 378.898,306.516 378.898,308.895L378.898,317.515C378.898,319.894 378.964,321.825 379.045,321.825L386.588,321.825C386.669,321.825 386.735,319.894 386.735,317.515L386.735,308.895Z" style="fill:rgb(146,182,244);"/>
            </g>
            <g transform="matrix(28.0131,0,0,1.23273,-9451.67,149.811)">
                <path d="M386.735,308.895C386.735,306.516 386.681,304.584 386.615,304.584L379.018,304.584C378.952,304.584 378.898,306.516 378.898,308.895L378.898,317.515C378.898,319.894 378.952,321.825 379.018,321.825L386.615,321.825C386.681,321.825 386.735,319.894 386.735,317.515L386.735,308.895Z" style="fill:rgb(244,240,180);"/>
            </g>
            <g transform="matrix(6.57312,0,0,1.23273,-1394.55,149.811)">
                <path d="M386.735,308.895C386.735,306.516 386.506,304.584 386.225,304.584L379.409,304.584C379.127,304.584 378.898,306.516 378.898,308.895L378.898,317.515C378.898,319.894 379.127,321.825 379.409,321.825L386.225,321.825C386.506,321.825 386.735,319.894 386.735,317.515L386.735,308.895Z" style="fill:rgb(146,182,244);"/>
            </g>
        </g>
        <g transform="matrix(1,0,0,0.631269,0,348.618)">
            <g transform="matrix(11.6931,0,0,1.23273,-2772.78,181.158)">
                <path d="M386.735,308.895C386.735,306.516 386.606,304.584 386.448,304.584L379.185,304.584C379.027,304.584 378.898,306.516 378.898,308.895L378.898,317.515C378.898,319.894 379.027,321.825 379.185,321.825L386.448,321.825C386.606,321.825 386.735,319.894 386.735,317.515L386.735,308.895Z" style="fill:rgb(146,182,244);"/>
            </g>
            <g transform="matrix(5.29312,0,0,1.23273,-401.744,181.158)">
                <path d="M386.735,308.895C386.735,306.516 386.451,304.584 386.101,304.584L379.532,304.584C379.182,304.584 378.898,306.516 378.898,308.895L378.898,317.515C378.898,319.894 379.182,321.825 379.532,321.825L386.101,321.825C386.451,321.825 386.735,319.894 386.735,317.515L386.735,308.895Z" style="fill:rgb(244,240,180);"/>
            </g>
            <g transform="matrix(35.3731,0,0,1.23273,-12093.7,181.158)">
                <path d="M386.735,308.895C386.735,306.516 386.693,304.584 386.64,304.584L378.993,304.584C378.941,304.584 378.898,306.516 378.898,308.895L378.898,317.515C378.898,319.894 378.941,321.825 378.993,321.825L386.64,321.825C386.693,321.825 386.735,319.894 386.735,317.515L386.735,308.895Z" style="fill:rgb(186,99,61);"/>
            </g>
            <g transform="matrix(14.7331,0,0,1.23273,-4419.91,181.158)">
                <path d="M386.735,308.895C386.735,306.516 386.633,304.584 386.507,304.584L379.126,304.584C379,304.584 378.898,306.516 378.898,308.895L378.898,317.515C378.898,319.894 379,321.825 379.126,321.825L386.507,321.825C386.633,321.825 386.735,319.894 386.735,317.515L386.735,308.895Z" style="fill:rgb(146,182,244);"/>
            </g>
        </g>
        <g transform="matrix(24.8131,0,0,0.778182,-7846.74,582.978)">
            <path d="M386.735,308.895C386.735,306.516 386.674,304.584 386.6,304.584L379.033,304.584C378.959,304.584 378.898,306.516 378.898,308.895L378.898,317.515C378.898,319.894 378.959,321.825 379.033,321.825L386.6,321.825C386.674,321.825 386.735,319.894 386.735,317.515L386.735,308.895Z" style="fill:rgb(56,163,112);"/>
        </g>
        <g transform="matrix(1,0,0,0.631269,0,428.674)">
            <g transform="matrix(4.81312,0,0,1.23273,-178.495,307.8)">
                <path d="M386.735,308.895C386.735,306.516 386.423,304.584 386.038,304.584L379.595,304.584C379.211,304.584 378.898,306.516 378.898,308.895L378.898,317.515C378.898,319.894 379.211,321.825 379.595,321.825L386.038,321.825C386.423,321.825 386.735,319.894 386.735,317.515L386.735,308.895Z" style="fill:rgb(146,182,244);"/>
            </g>
            <g transform="matrix(14.4131,0,0,1.23273,-3945.07,307.8)">
                <path d="M386.735,308.895C386.735,306.516 386.631,304.584 386.502,304.584L379.131,304.584C379.003,304.584 378.898,306.516 378.898,308.895L378.898,317.515C378.898,319.894 379.003,321.825 379.131,321.825L386.502,321.825C386.631,321.825 386.735,319.894 386.735,317.515L386.735,308.895Z" style="fill:rgb(146,182,244);"/>
            </g>
            <g transform="matrix(15.5331,0,0,1.23273,-4514.88,307.8)">
                <path d="M386.735,308.895C386.735,306.516 386.638,304.584 386.519,304.584L379.114,304.584C378.995,304.584 378.898,306.516 378.898,308.895L378.898,317.515C378.898,319.894 378.995,321.825 379.114,321.825L386.519,321.825C386.638,321.825 386.735,319.894 386.735,317.515L386.735,308.895Z" style="fill:rgb(186,99,61);"/>
            </g>
        </g>
        <g transform="matrix(6.73312,0,0,0.778182,-921.026,942.978)">
            <path d="M386.735,308.895C386.735,306.516 386.512,304.584 386.237,304.584L379.396,304.584C379.121,304.584 378.898,306.516 378.898,308.895L378.898,317.515C378.898,319.894 379.121,321.825 379.396,321.825L386.237,321.825C386.512,321.825 386.735,319.894 386.735,317.515L386.735,308.895Z" style="fill:rgb(146,182,244);"/>
        </g>
        <g transform="matrix(22.7331,0,0,0.778182,-7071.17,982.978)">
            <path d="M386.735,308.895C386.735,306.516 386.669,304.584 386.587,304.584L379.046,304.584C378.964,304.584 378.898,306.516 378.898,308.895L378.898,317.515C378.898,319.894 378.964,321.825 379.046,321.825L386.587,321.825C386.669,321.825 386.735,319.894 386.735,317.515L386.735,308.895Z" style="fill:rgb(56,163,112);"/>
        </g>
        <g transform="matrix(1,0,0,0.631269,0,448.094)">
            <g transform="matrix(5.45312,0,0,1.23273,-476.16,340.4)">
                <path d="M386.735,308.895C386.735,306.516 386.459,304.584 386.12,304.584L379.513,304.584C379.174,304.584 378.898,306.516 378.898,308.895L378.898,317.515C378.898,319.894 379.174,321.825 379.513,321.825L386.12,321.825C386.459,321.825 386.735,319.894 386.735,317.515L386.735,308.895Z" style="fill:rgb(146,182,244);"/>
            </g>
            <g transform="matrix(14.5731,0,0,1.23273,-4058.35,340.4)">
                <path d="M386.735,308.895C386.735,306.516 386.632,304.584 386.505,304.584L379.128,304.584C379.001,304.584 378.898,306.516 378.898,308.895L378.898,317.515C378.898,319.894 379.001,321.825 379.128,321.825L386.505,321.825C386.632,321.825 386.735,319.894 386.735,317.515L386.735,308.895Z" style="fill:rgb(146,182,244);"/>
            </g>
            <g transform="matrix(5.45312,0,0,1.23273,-476.16,340.4)">
                <path d="M386.735,308.895C386.735,306.516 386.459,304.584 386.12,304.584L379.513,304.584C379.174,304.584 378.898,306.516 378.898,308.895L378.898,317.515C378.898,319.894 379.174,321.825 379.513,321.825L386.12,321.825C386.459,321.825 386.735,319.894 386.735,317.515L386.735,308.895Z" style="fill:rgb(146,182,244);"/>
            </g>
            <g transform="matrix(15.5331,0,0,1.23273,-4565.04,340.4)">
                <path d="M386.735,308.895C386.735,306.516 386.638,304.584 386.519,304.584L379.114,304.584C378.995,304.584 378.898,306.516 378.898,308.895L378.898,317.515C378.898,319.894 378.995,321.825 379.114,321.825L386.519,321.825C386.638,321.825 386.735,319.894 386.735,317.515L386.735,308.895Z" style="fill:rgb(186,99,61);"/>
            </g>
        </g>
        <g transform="matrix(1,0,0,0.631269,0,469.888)">
            <g transform="matrix(19.3731,0,0,1.23273,-5914.68,370.494)">
                <path d="M386.735,308.895C386.735,306.516 386.657,304.584 386.562,304.584L379.071,304.584C378.976,304.584 378.898,306.516 378.898,308.895L378.898,317.515C378.898,319.894 378.976,321.825 379.071,321.825L386.562,321.825C386.657,321.825 386.735,319.894 386.735,317.515L386.735,308.895Z" style="fill:rgb(56,163,112);"/>
            </g>
            <g transform="matrix(6.09312,0,0,1.23273,-948.114,370.494)">
                <path d="M386.735,308.895C386.735,306.516 386.488,304.584 386.185,304.584L379.449,304.584C379.145,304.584 378.898,306.516 378.898,308.895L378.898,317.515C378.898,319.894 379.145,321.825 379.449,321.825L386.185,321.825C386.488,321.825 386.735,319.894 386.735,317.515L386.735,308.895Z" style="fill:rgb(146,182,244);"/>
            </g>
            <g transform="matrix(6.09312,0,0,1.23273,-1027.11,369.24)">
                <path d="M386.735,308.895C386.735,306.516 386.488,304.584 386.185,304.584L379.449,304.584C379.145,304.584 378.898,306.516 378.898,308.895L378.898,317.515C378.898,319.894 379.145,321.825 379.449,321.825L386.185,321.825C386.488,321.825 386.735,319.894 386.735,317.515L386.735,308.895Z" style="fill:rgb(146,182,244);"/>
            </g>
            <g transform="matrix(12.9731,0,0,1.23273,-3764.33,370.494)">
                <path d="M386.735,308.895C386.735,306.516 386.619,304.584 386.476,304.584L379.157,304.584C379.014,304.584 378.898,306.516 378.898,308.895L378.898,317.515C378.898,319.894 379.014,321.825 379.157,321.825L386.476,321.825C386.619,321.825 386.735,319.894 386.735,317.515L386.735,308.895Z" style="fill:rgb(146,182,244);"/>
            </g>
            <g transform="matrix(12.9731,0,0,1.23273,-3894.73,370.494)">
                <path d="M386.735,308.895C386.735,306.516 386.619,304.584 386.476,304.584L379.157,304.584C379.014,304.584 378.898,306.516 378.898,308.895L378.898,317.515C378.898,319.894 379.014,321.825 379.157,321.825L386.476,321.825C386.619,321.825 386.735,319.894 386.735,317.515L386.735,308.895Z" style="fill:rgb(244,240,180);"/>
            </g>
            <g transform="matrix(24.3331,0,0,1.23273,-8420.95,370.494)">
                <path d="M386.735,308.895C386.735,306.516 386.673,304.584 386.597,304.584L379.036,304.584C378.96,304.584 378.898,306.516 378.898,308.895L378.898,317.515C378.898,319.894 378.96,321.825 379.036,321.825L386.597,321.825C386.673,321.825 386.735,319.894 386.735,317.515L386.735,308.895Z" style="fill:rgb(146,182,244);"/>
            </g>
            <g transform="matrix(24.4931,0,0,1.23273,-8704.77,370.494)">
                <path d="M386.735,308.895C386.735,306.516 386.674,304.584 386.598,304.584L379.035,304.584C378.96,304.584 378.898,306.516 378.898,308.895L378.898,317.515C378.898,319.894 378.96,321.825 379.035,321.825L386.598,321.825C386.674,321.825 386.735,319.894 386.735,317.515L386.735,308.895Z" style="fill:rgb(244,240,180);"/>
            </g>
        </g>
        <g transform="matrix(1,0,0,0.631269,0,488.517)">
            <g transform="matrix(11.8531,0,0,1.23273,-3002.67,403.094)">
                <path d="M386.735,308.895C386.735,306.516 386.608,304.584 386.452,304.584L379.181,304.584C379.025,304.584 378.898,306.516 378.898,308.895L378.898,317.515C378.898,319.894 379.025,321.825 379.181,321.825L386.452,321.825C386.608,321.825 386.735,319.894 386.735,317.515L386.735,308.895Z" style="fill:rgb(146,182,244);"/>
            </g>
            <g transform="matrix(4.81312,0,0,1.23273,-387.892,403.094)">
                <path d="M386.735,308.895C386.735,306.516 386.423,304.584 386.038,304.584L379.595,304.584C379.211,304.584 378.898,306.516 378.898,308.895L378.898,317.515C378.898,319.894 379.211,321.825 379.595,321.825L386.038,321.825C386.423,321.825 386.735,319.894 386.735,317.515L386.735,308.895Z" style="fill:rgb(244,240,180);"/>
            </g>
            <g transform="matrix(10.8931,0,0,1.23273,-2793.16,403.094)">
                <path d="M386.735,308.895C386.735,306.516 386.597,304.584 386.427,304.584L379.206,304.584C379.036,304.584 378.898,306.516 378.898,308.895L378.898,317.515C378.898,319.894 379.036,321.825 379.206,321.825L386.427,321.825C386.597,321.825 386.735,319.894 386.735,317.515L386.735,308.895Z" style="fill:rgb(186,99,61);"/>
            </g>
            <g transform="matrix(14.7331,0,0,1.23273,-4392.32,403.094)">
                <path d="M386.735,308.895C386.735,306.516 386.633,304.584 386.507,304.584L379.126,304.584C379,304.584 378.898,306.516 378.898,308.895L378.898,317.515C378.898,319.894 379,321.825 379.126,321.825L386.507,321.825C386.633,321.825 386.735,319.894 386.735,317.515L386.735,308.895Z" style="fill:rgb(146,182,244);"/>
            </g>
        </g>
        <g transform="matrix(6.89312,0,0,0.778182,-1031.8,782.978)">
            <path d="M386.735,308.895C386.735,306.516 386.517,304.584 386.248,304.584L379.385,304.584C379.116,304.584 378.898,306.516 378.898,308.895L378.898,317.515C378.898,319.894 379.116,321.825 379.385,321.825L386.248,321.825C386.517,321.825 386.735,319.894 386.735,317.515L386.735,308.895Z" style="fill:rgb(146,182,244);"/>
        </g>
        <g transform="matrix(1,0,0,0.631269,0,528.149)">
            <g transform="matrix(5.45312,0,0,1.23273,-474.906,467.042)">
                <path d="M386.735,308.895C386.735,306.516 386.459,304.584 386.12,304.584L379.513,304.584C379.174,304.584 378.898,306.516 378.898,308.895L378.898,317.515C378.898,319.894 379.174,321.825 379.513,321.825L386.12,321.825C386.459,321.825 386.735,319.894 386.735,317.515L386.735,308.895Z" style="fill:rgb(146,182,244);"/>
            </g>
            <g transform="matrix(14.5731,0,0,1.23273,-4058.35,467.042)">
                <path d="M386.735,308.895C386.735,306.516 386.632,304.584 386.505,304.584L379.128,304.584C379.001,304.584 378.898,306.516 378.898,308.895L378.898,317.515C378.898,319.894 379.001,321.825 379.128,321.825L386.505,321.825C386.632,321.825 386.735,319.894 386.735,317.515L386.735,308.895Z" style="fill:rgb(146,182,244);"/>
            </g>
            <g transform="matrix(15.3731,0,0,1.23273,-4503.16,467.042)">
                <path d="M386.735,308.895C386.735,306.516 386.637,304.584 386.517,304.584L379.116,304.584C378.996,304.584 378.898,306.516 378.898,308.895L378.898,317.515C378.898,319.894 378.996,321.825 379.116,321.825L386.517,321.825C386.637,321.825 386.735,319.894 386.735,317.515L386.735,308.895Z" style="fill:rgb(186,99,61);"/>
            </g>
        </g>
        <g transform="matrix(6.89312,0,0,0.778182,-1031.8,902.978)">
            <path d="M386.735,308.895C386.735,306.516 386.517,304.584 386.248,304.584L379.385,304.584C379.116,304.584 378.898,306.516 378.898,308.895L378.898,317.515C378.898,319.894 379.116,321.825 379.385,321.825L386.248,321.825C386.517,321.825 386.735,319.894 386.735,317.515L386.735,308.895Z" style="fill:rgb(146,182,244);"/>
        </g>
    </g>
</svg>
